<?xml version="1.0" standalone="no"?>
<!DOCTYPE svg PUBLIC "-//W3C//DTD SVG 20010904//EN"
 "http://www.w3.org/TR/2001/REC-SVG-20010904/DTD/svg10.dtd">
<svg version="1.0" xmlns="http://www.w3.org/2000/svg"
 width="320.000000pt" height="320.000000pt" viewBox="0 0 320.000000 320.000000"
 preserveAspectRatio="xMidYMid meet">
<metadata>
Created by potrace 1.11, written by Peter Selinger 2001-2013
</metadata>
<g transform="translate(0.000000,320.000000) scale(0.100000,-0.100000)"
fill="#000000" stroke="none">
<path d="M0 1600 l0 -1600 1600 0 1600 0 0 1600 0 1600 -1600 0 -1600 0 0
-1600z m2990 0 l0 -1400 -1390 0 -1390 0 0 1400 0 1400 1390 0 1390 0 0 -1400z"/>
<path d="M2087 2656 l-28 -36 -200 0 c-170 0 -199 -2 -199 -15 0 -12 16 -15
85 -15 l85 0 0 -85 0 -85 -27 0 c-16 1 -39 7 -53 15 -52 30 -50 41 -50 -350
l0 -365 30 0 c28 0 30 2 30 40 l0 40 154 0 155 0 3 -37 c3 -33 7 -38 31 -41
l27 -3 0 329 c0 291 2 331 16 336 23 9 13 46 -18 69 l-27 20 -21 -26 c-15 -18
-31 -27 -51 -27 l-29 0 0 85 0 85 90 0 c104 0 111 8 57 66 l-33 36 -27 -36z
m-147 -151 c0 -84 0 -85 -25 -85 -25 0 -25 1 -25 85 0 84 0 85 25 85 25 0 25
-1 25 -85z m-113 -188 c-4 -45 -16 -116 -27 -157 -27 -98 -27 -102 -13 -107
29 -11 83 147 98 290 6 52 9 57 31 57 l24 0 0 -121 c0 -66 5 -129 10 -140 9
-15 22 -19 65 -19 l55 0 0 -65 0 -66 -152 3 -153 3 -3 190 c-1 104 0 195 2
202 3 7 20 13 37 13 l32 0 -6 -83z m243 -33 l0 -115 -32 3 -33 3 -3 113 -3
112 36 0 35 0 0 -116z m-2 -387 l3 -68 -153 3 -153 3 -3 54 c-5 85 -12 82 155
79 l148 -3 3 -68z"/>
<path d="M2516 2645 c-16 -25 -18 -25 -166 -25 -129 0 -149 -2 -144 -15 5 -12
32 -15 155 -15 l150 0 -3 -157 -3 -158 -102 -3 c-87 -2 -108 0 -143 18 l-40
20 0 -263 c0 -211 3 -267 14 -283 13 -18 28 -19 194 -19 137 0 183 3 195 14
23 18 21 44 -3 66 -14 12 -20 31 -20 59 0 67 -11 116 -26 116 -10 0 -14 -13
-14 -42 -1 -65 -17 -121 -41 -140 -29 -25 -200 -26 -223 -2 -14 13 -16 47 -16
220 l0 204 115 0 115 0 0 -35 c0 -32 2 -35 30 -35 l30 0 0 199 c0 164 3 201
15 211 22 18 19 33 -13 63 -34 33 -36 33 -56 2z"/>
<path d="M920 2621 c0 -5 9 -28 20 -52 11 -24 20 -58 20 -75 0 -30 -2 -32 -52
-38 -29 -4 -80 -18 -114 -32 -33 -13 -63 -24 -66 -24 -4 0 -16 15 -27 34 -27
43 -70 86 -87 86 -19 0 -18 -35 2 -51 8 -7 27 -35 40 -62 l25 -48 -37 -41
c-20 -22 -48 -66 -63 -97 -22 -47 -26 -70 -26 -141 0 -72 4 -91 24 -124 75
-120 194 -96 276 57 16 29 38 64 51 79 12 15 25 47 29 70 8 46 62 249 69 255
2 3 33 -3 68 -11 128 -33 198 -119 198 -246 0 -88 -24 -161 -72 -215 -62 -70
-112 -94 -272 -130 -20 -4 -26 -9 -19 -16 14 -14 145 5 214 31 119 44 218 175
227 300 12 166 -106 307 -276 327 l-52 6 0 59 c0 49 -4 63 -25 83 -23 24 -75
35 -75 16z m-13 -331 c-30 -89 -45 -120 -57 -118 -8 2 -34 41 -57 88 -33 66
-40 87 -30 97 17 16 126 52 159 53 l27 0 -42 -120z m-191 -52 c14 -49 29 -73
66 -109 l47 -47 -35 -40 c-108 -127 -238 -19 -179 149 16 44 60 109 74 109 4
0 16 -28 27 -62z"/>
<path d="M2475 1520 c-17 -19 -31 -20 -327 -20 -247 0 -316 3 -343 14 l-35 15
0 -125 0 -124 30 0 c23 0 30 4 30 20 0 19 7 20 145 20 l145 0 0 -34 c0 -69 10
-66 -226 -66 -186 0 -213 -2 -208 -15 5 -13 38 -15 210 -15 l204 0 0 -29 c0
-50 -9 -61 -49 -61 -20 1 -47 7 -61 15 -14 8 -28 14 -32 15 -5 0 -8 -94 -8
-210 l0 -210 30 0 c23 0 30 4 30 20 0 19 7 20 200 20 193 0 200 -1 200 -20 0
-16 7 -20 30 -20 l30 0 0 171 c0 152 2 173 18 185 21 16 10 37 -30 62 -27 16
-29 16 -44 -6 -14 -21 -22 -22 -135 -22 -129 0 -125 -2 -113 59 l7 31 223 0
c122 0 225 4 228 8 3 5 -12 25 -32 45 l-38 37 -29 -30 -29 -30 -158 0 c-148 0
-158 1 -158 19 0 11 9 21 21 24 30 8 19 28 -22 43 -30 11 -13 13 129 13 156 1
162 0 162 -19 0 -16 7 -20 30 -20 l30 0 0 84 c0 75 2 85 23 99 l22 15 -29 31
c-35 36 -46 38 -71 11z m-475 -110 l0 -60 -85 0 -85 0 0 60 0 60 85 0 85 0 0
-60z m230 0 l0 -60 -85 0 -85 0 0 60 0 60 85 0 85 0 0 -60z m240 0 l0 -60 -90
0 -90 0 0 53 c0 30 3 57 7 60 3 4 44 7 90 7 l83 0 0 -60z m-60 -375 l0 -35
-200 0 -200 0 0 35 0 35 200 0 200 0 0 -35z m-2 -102 l-3 -38 -197 -3 -198 -2
0 40 0 40 201 0 200 0 -3 -37z m0 -110 l3 -43 -200 0 -201 0 0 45 0 45 198 -2
197 -3 3 -42z"/>
<path d="M770 1500 c0 -5 10 -28 21 -50 20 -38 20 -46 9 -103 -6 -34 -14 -65
-17 -69 -5 -10 -55 15 -72 36 -20 24 -41 19 -41 -8 0 -31 32 -70 70 -86 16 -7
30 -14 30 -16 0 -19 -23 -104 -29 -104 -4 0 -24 -15 -44 -34 -47 -43 -47 -69
-2 -112 33 -30 35 -37 35 -94 0 -88 18 -147 55 -184 40 -40 93 -56 186 -56
125 0 233 66 259 158 26 96 -1 186 -78 262 -65 62 -158 118 -174 102 -6 -6 3
-17 26 -31 54 -33 122 -116 140 -168 46 -134 -5 -237 -128 -263 -127 -26 -217
39 -233 169 l-6 49 94 -2 c79 -1 94 2 97 15 6 30 -24 46 -98 52 -40 3 -75 8
-77 11 -3 3 -1 31 3 63 9 55 11 59 49 77 78 36 115 65 115 89 0 32 -18 47 -56
47 -62 0 -64 4 -43 78 27 96 25 125 -12 156 -30 25 -79 35 -79 16z m87 -316
c3 -9 -36 -39 -42 -32 -1 2 1 14 6 26 9 23 29 26 36 6z m-121 -172 c-4 -3 -11
-1 -18 6 -8 8 -8 15 3 28 13 16 14 16 17 -5 2 -13 1 -25 -2 -29z"/>
<path d="M1750 825 l0 -255 30 0 c27 0 30 3 30 30 l0 30 410 0 c363 0 411 2
417 16 6 16 -52 84 -71 84 -6 0 -22 -16 -36 -35 l-25 -35 -345 3 -345 2 -3
178 -2 177 25 12 c44 20 14 44 -57 47 l-28 1 0 -255z"/>
</g>
</svg>
